<svg id="Layer_1" data-name="Layer 1" xmlns="http://www.w3.org/2000/svg" viewBox="0 0 512 512"><title>angry-mad</title><rect width="512" height="512" rx="24.78" ry="24.78" fill="#00a8b8"/><path d="M399.2,403.59c-78.62-73.81-207.79-73.81-286.4,0-10,9.37,5.74,23.68,15.73,14.3,70.36-66.06,184.57-66.06,254.93,0,10,9.38,25.72-4.93,15.74-14.3Zm0,0" fill="#fff"/><path d="M214.61,228.35c0,22.21-19.82,40.22-44.28,40.22s-44.27-18-44.27-40.22,19.83-40.23,44.27-40.23,44.28,18,44.28,40.23Zm0,0" fill="#fff"/><path d="M382,228.35c0,22.21-19.82,40.22-44.27,40.22s-44.27-18-44.27-40.22,19.82-40.23,44.27-40.23,44.27,18,44.27,40.23Zm0,0" fill="#fff"/><path d="M350.47,94,248.14,187h15.74L161.54,94c-10.16-9.23-25.9,5.07-15.74,14.3l102.33,93a12.06,12.06,0,0,0,15.74,0l102.33-93c10.16-9.23-5.58-23.53-15.74-14.3Zm0,0" fill="#fff"/></svg>