<svg id="Layer_1" data-name="Layer 1" xmlns="http://www.w3.org/2000/svg" viewBox="0 0 512 512"><title>tongue-out</title><rect width="512" height="512" rx="24.78" ry="24.78" fill="#3e6980"/><path d="M218.19,146.71a43,43,0,1,1-43-43,43,43,0,0,1,43,43Zm0,0" fill="#fff"/><path d="M380.87,146.71a43,43,0,1,1-43-43,43,43,0,0,1,43,43Zm0,0" fill="#fff"/><path d="M239.55,334.14a74.17,74.17,0,1,0,148.34,0Zm0,0" fill="#fff"/><path d="M106.2,344.8H405.81c13.94,0,13.94-21.62,0-21.62H106.2c-13.95,0-13.95,21.62,0,21.62Zm0,0" fill="#fff"/></svg>