<svg id="Layer_1" data-name="Layer 1" xmlns="http://www.w3.org/2000/svg" viewBox="0 0 512 512"><title>persevere</title><rect width="512" height="512" rx="24.78" ry="24.78" fill="#3e6980"/><path d="M248.43,332.25C215,388.51,128.85,370.57,123,304.23c-1-11.56-19.17-11.65-18.14,0,3.48,39.39,29.67,70.84,68.7,79.35,36.16,7.88,72.18-11.33,90.53-42.18,6-10.08-9.69-19.2-15.66-9.15Zm0,0" fill="#fff"/><path d="M407.07,380.76c2.13-41.74-23.77-77.44-63.87-88.89-37.26-10.65-76.12,9.07-95.2,41.16-6,10.08,9.69,19.2,15.66,9.16,36.56-61.49,128.9-32.63,125.27,38.58-.59,11.69,17.55,11.64,18.14,0Zm0,0" fill="#fff"/><path d="M221.11,182.76A36.08,36.08,0,1,1,185,146.67a36.08,36.08,0,0,1,36.08,36.08Zm0,0" fill="#fff"/><path d="M381.74,182.76a60.27,60.27,0,1,1-60.27-60.26,60.27,60.27,0,0,1,60.27,60.26Zm0,0" fill="#fff"/></svg>