<svg id="Layer_1" data-name="Layer 1" xmlns="http://www.w3.org/2000/svg" viewBox="0 0 512 512"><title>sad-tear</title><rect width="512" height="512" rx="24.78" ry="24.78" fill="#00a8b8"/><path d="M394.86,389.13a202.84,202.84,0,0,0-291.48.85c-10.19,10.52,5.86,26.59,16.05,16.06,71.47-73.86,187.43-74.31,259.37-.85,10.26,10.48,26.31-5.6,16.06-16.06Zm0,0" fill="#fff"/><path d="M207.27,147.7a45.18,45.18,0,1,1-45.18-45.18,45.18,45.18,0,0,1,45.18,45.18Zm0,0" fill="#fff"/><path d="M378.12,147.7a45.18,45.18,0,1,1-45.18-45.18,45.18,45.18,0,0,1,45.18,45.18Zm0,0" fill="#fff"/><path d="M378.47,188.22s-33.41,41.12-33.41,83.55a33.41,33.41,0,1,0,66.83,0c0-20.54-33.42-83.54-33.42-83.54Zm0,0" fill="#fff"/></svg>