<svg id="Layer_1" data-name="Layer 1" xmlns="http://www.w3.org/2000/svg" viewBox="0 0 512 512"><title>lips-sealed</title><rect width="512" height="512" rx="24.78" ry="24.78" fill="#00a18c"/><path d="M216.76,153.65a42,42,0,1,1-42-42,42,42,0,0,1,42,42Zm0,0" fill="#fff"/><path d="M375.45,153.65a42,42,0,1,1-42-42,42,42,0,0,1,42,42Zm0,0" fill="#fff"/><path d="M396,335.55a15.67,15.67,0,0,1,8.92,20.29L393.53,385A15.66,15.66,0,0,1,373.24,394L116,293.91a15.67,15.67,0,0,1-8.93-20.29l11.36-29.2a15.67,15.67,0,0,1,20.28-8.93Zm0,0" fill="#fff"/><path d="M369.69,230.47a15.68,15.68,0,0,1,20.66,8L403,267.2a15.67,15.67,0,0,1-8,20.65L142.31,399a15.68,15.68,0,0,1-20.66-8L109,362.26a15.68,15.68,0,0,1,8-20.66Zm0,0" fill="#fff"/></svg>