<svg id="Layer_1" data-name="Layer 1" xmlns="http://www.w3.org/2000/svg" viewBox="0 0 512 512"><title>shocked</title><rect width="512" height="512" rx="24.78" ry="24.78" fill="#00a8b8"/><path d="M400.52,165.86a79.52,79.52,0,0,0-101.4-40.52c-12,4.66-6.78,24.17,5.36,19.45,31.83-12.38,64,.3,78.63,31.25,5.55,11.76,22.94,1.52,17.41-10.18Zm0,0" fill="#fff"/><path d="M128.89,176c14.62-31,46.8-43.64,78.63-31.26,12.14,4.72,17.35-14.79,5.36-19.45a79.52,79.52,0,0,0-101.41,40.52C106,177.46,123.35,187.71,128.89,176Zm0,0" fill="#fff"/><path d="M331.53,302c0,49.9-33.81,90.34-75.54,90.34S180.47,351.88,180.47,302,214.3,211.64,256,211.64,331.53,252.1,331.53,302Zm0,0" fill="#fff"/></svg>