<svg id="Layer_1" data-name="Layer 1" xmlns="http://www.w3.org/2000/svg" viewBox="0 0 512 512"><title>sad</title><rect width="512" height="512" rx="24.78" ry="24.78" fill="#00a18c"/><path d="M220.45,233.18a40.5,40.5,0,1,1-40.5-40.5,40.5,40.5,0,0,1,40.5,40.5Zm0,0" fill="#fff"/><path d="M373.58,233.18a40.5,40.5,0,1,1-40.49-40.5,40.5,40.5,0,0,1,40.49,40.5Zm0,0" fill="#fff"/><path d="M346.79,133.77l-93.61,41.49h10.27l-93.6-41.49C158,128.5,147.59,146,159.58,151.35l50.49,22.39,32.41,14.36c4.39,2,10.84,6.13,15.84,6.13s11.45-4.19,15.84-6.13l32.41-14.36,50.5-22.39c12-5.31,1.61-22.85-10.28-17.58Zm0,0" fill="#fff"/><path d="M114.24,373.67a281.55,281.55,0,0,1,283.52,0c12,7.26,23.42-9.6,10.25-17.59a301.9,301.9,0,0,0-304,0c-13.17,8-1.73,24.85,10.25,17.59Zm.75,5.53" fill="#fff"/></svg>
