<svg id="Layer_1" data-name="Layer 1" xmlns="http://www.w3.org/2000/svg" viewBox="0 0 512 512"><title>sad-smile</title><rect width="512" height="512" rx="24.78" ry="24.78" fill="#f3a719"/><path d="M387.94,376.54a183.65,183.65,0,0,0-263.91.77c-9.23,9.52,5.3,24.08,14.53,14.54,64.71-66.86,169.7-67.28,234.83-.77,9.29,9.49,23.82-5.07,14.54-14.54Zm0,0" fill="#fff"/><path d="M218.1,157.94A40.91,40.91,0,1,1,177.19,117a40.9,40.9,0,0,1,40.91,40.91Zm0,0" fill="#fff"/><path d="M372.78,157.94A40.91,40.91,0,1,1,331.88,117a40.9,40.9,0,0,1,40.9,40.91Zm0,0" fill="#fff"/></svg>